#!OML:ASF E:\acrobat2\Project_11_07_03\Capture day 1\Session 1\Acrobat.ASF
:FULLY-SPECIFIED
:DEGREES
82
root 9.71754 19.3884 -22.6465 179.348 28.6978 -178.84
lowerback 0.330389 2.19627 -2.01368
upperback 1.78726 3.05821 -2.2693
thorax 1.66798 1.55281 -1.16382
lowerneck 0.452048 4.55457 0.604307
upperneck 9.28413 6.0884 6.05526
head 2.70164 3.41265 1.98443
rclavicle 8.99501e-015 2.14687e-014
rhumerus -60.1188 -18.3722 -44.6943
rradius 22.5497
rwrist -7.51831
rhand -9.31801 -45.106
rfingers 7.12502
rthumb 16.6403 285.587
lclavicle 8.99501e-015 2.14687e-014
lhumerus -43.7604 13.5963 50.448
lradius 26.9718
lwrist 14.9563
lhand -14.4726 -376.716
lfingers 7.12502
lthumb 11.6734 12.9387
rfemur 3.18305 -13.6066 8.14672
rtibia 84.2182
rfoot -191.279 -178.595
rtoes -40.7963
lfemur -5.53035 -1.57235 -16.1579
ltibia -2.05246
lfoot -11.0288 2.27199
ltoes 66.1432
83
root 9.77366 19.1149 -23.1387 179.499 28.4547 -178.397
lowerback 0.539915 1.47055 -2.06413
upperback 2.01782 2.08152 -1.98933
thorax 1.76822 1.05869 -0.86147
lowerneck -0.512981 5.23604 0.788208
upperneck 8.51806 6.94014 5.60903
head 2.61571 3.78457 1.8328
rclavicle -4.52235e-015 -1.74931e-014
rhumerus -58.3199 -17.9514 -44.5279
rradius 21.6553
rwrist -6.32881
rhand -8.96789 -43.8738
rfingers 7.12502
rthumb 16.9773 286.848
lclavicle -4.52235e-015 -1.74931e-014
lhumerus -44.8419 14.979 47.248
lradius 26.5333
lwrist 14.8579
lhand -13.9357 -374.751
lfingers 7.12502
lthumb 12.1911 14.8736
rfemur 3.35469 -13.1251 8.49395
rtibia 83.866
rfoot -192.57 -178.888
rtoes -43.808
lfemur -6.00092 0.947415 -16.1869
ltibia -1.47087
lfoot -7.27697 4.22125
ltoes 68.393
84
root 9.83306 18.79 -23.6093 179.522 27.4242 -177.936
lowerback 1.37303 1.42919 -1.63137
upperback 1.89017 1.98442 -1.76531
thorax 1.17544 1.01463 -0.900277
lowerneck -0.694665 5.05297 -0.0225235
upperneck 6.9811 6.67448 5.93508
head 2.10909 3.58248 2.02397
rclavicle 2.45499e-014 -7.95139e-015
rhumerus -59.0333 -17.255 -43.9836
rradius 21.8809
rwrist -7.20407
rhand -9.5051 -43.8849
rfingers 7.12502
rthumb 16.4602 286.793
lclavicle 2.45499e-014 -7.95139e-015
lhumerus -43.9576 13.6647 46.065
lradius 25.4461
lwrist 14.7677
lhand -14.9439 -381.07
lfingers 7.12502
lthumb 11.2188 8.60962
rfemur 3.84616 -13.2897 8.88576
rtibia 83.3403
rfoot -193.143 -179.256
rtoes -44.372
lfemur -7.5632 5.15628 -16.3453
ltibia 2.5282
lfoot -0.48477 3.12619
ltoes 68.6939
85
root 9.88692 18.4131 -24.0638 179.546 26.925 -177.549
lowerback 2.08369 1.49923 -1.34016
upperback 1.94935 2.06737 -1.73655
thorax 0.847483 1.06293 -1.05423
lowerneck -1.00965 4.67588 0.0459097
upperneck 6.50038 6.15105 6.4947
head 2.01214 3.33291 2.18321
rclavicle 2.45002e-014 3.02153e-014
rhumerus -59.5565 -16.6714 -44.2299
rradius 22.2894
rwrist -7.95345
rhand -9.99147 -44.2124
rfingers 7.12502
rthumb 15.9919 286.428
lclavicle 2.45002e-014 3.02153e-014
lhumerus -41.846 12.3676 44.9504
lradius 23.7066
lwrist 13.5409
lhand -14.4131 -380.571
lfingers 7.12502
lthumb 11.7308 9.08063
rfemur 3.77406 -12.8137 9.40282
rtibia 83.1224
rfoot -192.933 -180.612
rtoes -45.0284
lfemur -9.7761 7.36253 -16.5649
ltibia 9.08628
lfoot 3.82837 -3.26913
ltoes 66.9506
86
root 9.9309 18.0166 -24.5046 179.015 26.1436 -177.562
lowerback 3.14706 1.15512 -1.57846
upperback 1.93721 1.57614 -1.48026
thorax 0.222469 0.81621 -0.677219
lowerneck -0.456699 4.76455 -0.720232
upperneck 5.38608 6.30614 7.11761
head 1.50663 3.36878 2.46495
rclavicle 3.62782e-014 1.11319e-014
rhumerus -59.4799 -15.2009 -44.1444
rradius 22.0427
rwrist -7.04523
rhand -9.26731 -42.5355
rfingers 7.12502
rthumb 16.6891 288.162
lclavicle 3.62782e-014 1.11319e-014
lhumerus -40.7425 11.5271 44.0154
lradius 22.1537
lwrist 11.4808
lhand -14.688 -380.233
lfingers 7.12502
lthumb 11.4657 9.43317
rfemur 3.95164 -12.3811 9.46738
rtibia 82.9051
rfoot -193.538 -181.024
rtoes -45.3718
lfemur -12.132 7.25171 -17.3099
ltibia 17.436
lfoot 2.6171 -12.2162
ltoes 63.2766
87
root 9.99037 17.6264 -24.8908 178.514 25.4871 -179.55
lowerback 3.66206 1.12748 -3.87171
upperback 1.59241 1.4556 -1.77596
thorax -0.463794 0.75878 0.287957
lowerneck -0.221537 4.65278 -1.34915
upperneck 4.51467 6.18855 7.82143
head 1.15275 3.28742 2.77419
rclavicle 3.61788e-014 -3.97569e-015
rhumerus -59.6832 -13.3764 -45.7592
rradius 22.7608
rwrist -8.55205
rhand -10.6492 -44.6954
rfingers 7.12502
rthumb 15.3584 285.895
lclavicle 3.61788e-014 -3.97569e-015
lhumerus -39.1329 8.2198 45.1586
lradius 23.0078
lwrist 11.5816
lhand -16.5371 -374.228
lfingers 7.12502
lthumb 9.68193 15.529
rfemur 2.32859 -11.8327 8.02142
rtibia 83.1754
rfoot -193.626 -181.499
rtoes -43.5386
lfemur -16.2804 7.94733 -20.5627
ltibia 26.237
lfoot 0.299314 -14.6978
ltoes 62.817
88
root 10.0622 17.3487 -25.2837 177.827 24.728 -182.672
lowerback 3.91314 1.20524 -7.17234
upperback 0.896212 1.42346 -2.43987
thorax -1.3748 0.792571 1.42571
lowerneck 0.770902 4.46779 -1.87845
upperneck 3.80069 5.99633 8.62082
head 0.722971 3.16868 3.08603
rclavicle -1.1778e-014 1.27222e-014
rhumerus -60.5864 -12.4636 -46.478
rradius 22.6663
rwrist -7.77427
rhand -11.2217 -45.9611
rfingers 7.12502
rthumb 14.8069 284.588
lclavicle -1.1778e-014 1.27222e-014
lhumerus -37.8146 5.01862 46.0674
lradius 22.4404
lwrist 11.3816
lhand -16.9157 -373.757
lfingers 7.12502
lthumb 9.31668 16.0167
rfemur -0.0190421 -11.215 5.72147
rtibia 83.26
rfoot -193.912 -182.016
rtoes -42.9587
lfemur -19.5498 8.73511 -24.4794
ltibia 32.6127
lfoot -1.46815 -17.9748
ltoes 59.6731
